<svg width="140" height="180" viewBox="0 0 140 180" fill="none" xmlns="http://www.w3.org/2000/svg">
<path d="M140 0H0V180H140V0Z" fill="#0014B4"/>
<path d="M27.2636 132.153C27.0042 131.868 26.7059 131.622 26.3427 131.427C25.8109 131.155 25.2013 131.012 24.5268 131.012C23.6707 131.012 22.8925 131.233 22.205 131.661C21.5176 132.089 20.9728 132.672 20.5837 133.425C20.1946 134.164 20 135.007 20 135.941C20 136.875 20.1946 137.705 20.5837 138.444C20.9728 139.184 21.5176 139.767 22.205 140.208C22.8925 140.636 23.6707 140.857 24.5268 140.857C25.2013 140.857 25.8109 140.714 26.3427 140.442C26.7059 140.247 26.9912 140.001 27.2636 139.715V140.662H29.8059V131.233H27.2636V132.166V132.153ZM26.7448 137.77C26.3038 138.25 25.7201 138.483 25.0067 138.483C24.5398 138.483 24.1247 138.379 23.7615 138.159C23.3983 137.938 23.1259 137.64 22.9184 137.264C22.7109 136.875 22.6201 136.434 22.6201 135.928C22.6201 135.422 22.7239 134.994 22.9184 134.605C23.1259 134.216 23.3983 133.918 23.7615 133.71C24.1247 133.489 24.5268 133.386 25.0067 133.386C25.4866 133.386 25.9017 133.489 26.2649 133.71C26.628 133.931 26.9004 134.229 27.108 134.605C27.3155 134.994 27.4063 135.435 27.4063 135.928C27.4063 136.68 27.1858 137.303 26.7448 137.77Z" fill="white"/>
<path d="M39.1061 132.063C38.8597 131.816 38.5873 131.609 38.25 131.44C37.7053 131.168 37.0956 131.025 36.4212 131.025C35.5392 131.025 34.7479 131.245 34.0735 131.673C33.386 132.101 32.8542 132.685 32.4521 133.437C32.05 134.177 31.8555 135.02 31.8555 135.954C31.8555 136.888 32.05 137.718 32.4521 138.457C32.8542 139.196 33.399 139.78 34.0864 140.221C34.7739 140.649 35.5521 140.87 36.4341 140.87C37.1086 140.87 37.7182 140.727 38.276 140.442C38.6132 140.273 38.8856 140.04 39.132 139.793V140.675H41.6743V126.55H39.1191V132.076L39.1061 132.063ZM38.9634 137.264C38.7559 137.653 38.4835 137.951 38.1203 138.159C37.7572 138.379 37.3421 138.483 36.8622 138.483C36.4082 138.483 35.9931 138.379 35.63 138.159C35.2668 137.938 34.9814 137.64 34.7739 137.264C34.5664 136.875 34.4756 136.434 34.4756 135.928C34.4756 135.422 34.5793 134.994 34.7739 134.618C34.9814 134.242 35.2538 133.943 35.617 133.723C35.9802 133.502 36.3952 133.386 36.8751 133.386C37.3551 133.386 37.7572 133.489 38.1203 133.71C38.4835 133.93 38.7559 134.229 38.9634 134.605C39.171 134.994 39.2618 135.435 39.2618 135.928C39.2618 136.421 39.158 136.888 38.9634 137.264Z" fill="white"/>
<path d="M49.2015 140.649L53.3391 131.22H50.6282L48.3195 137.199L46.0236 131.22H43.209L47.3726 140.649H49.2015Z" fill="white"/>
<path d="M63.4168 138.418C63.8578 137.666 64.0783 136.836 64.0783 135.915C64.0783 134.994 63.8578 134.164 63.4168 133.425C62.9757 132.685 62.3661 132.102 61.6138 131.674C60.8485 131.233 59.9925 131.025 59.0326 131.025C58.0728 131.025 57.2427 131.246 56.4774 131.674C55.7121 132.115 55.1025 132.698 54.6615 133.425C54.2205 134.164 54 134.994 54 135.915C54 136.836 54.2205 137.679 54.6745 138.418C55.1284 139.171 55.7251 139.754 56.4904 140.195C57.2557 140.636 58.1117 140.844 59.0586 140.844C60.0054 140.844 60.8615 140.623 61.6268 140.195C62.3921 139.754 62.9887 139.171 63.4297 138.418H63.4168ZM61.1598 137.251C60.9523 137.64 60.667 137.938 60.3038 138.146C59.9406 138.354 59.5126 138.47 59.0197 138.47C58.5268 138.47 58.1377 138.367 57.7745 138.146C57.4113 137.926 57.1259 137.627 56.9184 137.251C56.7109 136.862 56.6071 136.434 56.6071 135.928C56.6071 135.422 56.7109 134.994 56.9184 134.618C57.1259 134.242 57.4113 133.944 57.7745 133.723C58.1377 133.502 58.5527 133.399 59.0197 133.399C59.4866 133.399 59.9276 133.502 60.2908 133.723C60.654 133.944 60.9393 134.229 61.1469 134.618C61.3544 134.994 61.4582 135.435 61.4582 135.928C61.4582 136.421 61.3544 136.862 61.1598 137.251Z" fill="white"/>
<path d="M74.2603 139.248L72.6 137.588C72.3536 137.874 72.0552 138.094 71.705 138.237C71.3548 138.392 70.9787 138.457 70.5377 138.457C70.0707 138.457 69.6427 138.354 69.2795 138.133C68.9033 137.913 68.618 137.614 68.3975 137.238C68.177 136.849 68.0732 136.421 68.0732 135.915C68.0732 135.409 68.177 134.968 68.3975 134.592C68.618 134.216 68.9033 133.931 69.2795 133.71C69.6556 133.49 70.0707 133.386 70.5377 133.386C70.9527 133.386 71.3289 133.464 71.6791 133.606C72.0293 133.749 72.3146 133.956 72.5611 134.229L74.1954 132.569C73.7414 132.063 73.1967 131.674 72.5741 131.401C71.9515 131.129 71.264 130.986 70.5247 130.986C69.5778 130.986 68.7088 131.207 67.9435 131.635C67.1653 132.076 66.5556 132.659 66.1146 133.399C65.6736 134.138 65.4531 134.981 65.4531 135.915C65.4531 136.849 65.6736 137.679 66.1146 138.418C66.5556 139.158 67.1653 139.741 67.9305 140.182C68.6958 140.61 69.5648 140.831 70.5247 140.831C71.264 140.831 71.9515 140.688 72.5741 140.416C73.1967 140.143 73.7544 139.741 74.2343 139.223L74.2603 139.248Z" fill="white"/>
<path d="M77.4785 140.208C78.1659 140.636 78.9442 140.857 79.8002 140.857C80.4747 140.857 81.0843 140.714 81.6161 140.442C81.9793 140.247 82.2776 140.001 82.537 139.715V140.662H85.0793V131.233H82.537V132.167C82.2776 131.881 81.9793 131.635 81.6161 131.44C81.0843 131.168 80.4747 131.025 79.8002 131.025C78.9442 131.025 78.1659 131.246 77.4785 131.674C76.791 132.102 76.2462 132.685 75.8571 133.438C75.468 134.177 75.2734 135.02 75.2734 135.954C75.2734 136.888 75.468 137.718 75.8571 138.457C76.2462 139.197 76.791 139.78 77.4785 140.221V140.208ZM78.1919 134.605C78.3994 134.216 78.6718 133.918 79.0349 133.71C79.3981 133.49 79.8002 133.386 80.2801 133.386C80.7601 133.386 81.1881 133.49 81.5383 133.71C81.9015 133.931 82.1739 134.229 82.3814 134.605C82.5889 134.994 82.6797 135.435 82.6797 135.928C82.6797 136.68 82.4592 137.303 82.0182 137.77C81.5772 138.25 80.9935 138.483 80.2801 138.483C79.8132 138.483 79.3981 138.379 79.0349 138.159C78.6718 137.938 78.3994 137.64 78.1919 137.264C77.9843 136.875 77.8935 136.434 77.8935 135.928C77.8935 135.422 77.9973 134.994 78.1919 134.605Z" fill="white"/>
<path d="M91.6528 140.649V133.463H93.8579V131.219H91.6528V127.302H89.0976V131.219H86.8926V133.463H89.0976V140.649H91.6528Z" fill="white"/>
<path d="M102.199 131.622C101.499 131.207 100.695 131.012 99.7869 131.012C98.8789 131.012 98.0228 131.233 97.2705 131.661C96.5182 132.102 95.9216 132.685 95.4806 133.412C95.0396 134.151 94.832 134.981 94.832 135.915C94.832 136.849 95.0525 137.718 95.5065 138.457C95.9605 139.197 96.5701 139.78 97.3354 140.208C98.1007 140.636 98.9827 140.844 99.9684 140.844C100.734 140.844 101.447 140.701 102.109 140.429C102.77 140.156 103.328 139.754 103.782 139.223L102.277 137.718C101.992 138.042 101.655 138.289 101.266 138.444C100.876 138.613 100.435 138.691 99.9555 138.691C99.4237 138.691 98.9567 138.574 98.5546 138.354C98.1525 138.12 97.8412 137.796 97.6207 137.381C97.5429 137.212 97.4781 137.03 97.4262 136.836H104.301C104.353 136.602 104.391 136.395 104.404 136.226C104.417 136.045 104.43 135.876 104.43 135.707C104.43 134.813 104.236 134.008 103.834 133.295C103.432 132.582 102.887 132.024 102.199 131.622ZM98.4509 133.477C98.827 133.243 99.268 133.139 99.7739 133.139C100.28 133.139 100.669 133.243 100.993 133.438C101.33 133.645 101.577 133.93 101.758 134.307C101.836 134.488 101.901 134.696 101.953 134.916H97.4132C97.4651 134.761 97.504 134.592 97.5818 134.436C97.7894 134.021 98.0747 133.71 98.4509 133.477Z" fill="white"/>
<path d="M108.945 135.241C108.945 134.864 109.022 134.527 109.191 134.242C109.36 133.956 109.58 133.736 109.866 133.58C110.151 133.425 110.475 133.347 110.838 133.347C111.396 133.347 111.85 133.528 112.2 133.879C112.55 134.229 112.732 134.683 112.732 135.241V140.649H115.287V134.67C115.287 134.034 115.132 133.438 114.82 132.88C114.509 132.322 114.081 131.881 113.536 131.531C112.991 131.181 112.369 131.012 111.681 131.012C110.994 131.012 110.32 131.168 109.762 131.479C109.45 131.648 109.191 131.868 108.958 132.102V131.194H106.402V140.623H108.958V135.215L108.945 135.241Z" fill="white"/>
<path d="M29.5357 150.365H26.5914L23.1541 154.685V145.67H20.5859V159.795H23.1541V155.19L26.6044 159.795H29.7303L25.8391 154.853L29.5357 150.365Z" fill="white"/>
<path d="M37.1484 151.3C36.889 151.014 36.5906 150.768 36.2275 150.573C35.6957 150.301 35.086 150.158 34.4116 150.158C33.5555 150.158 32.7772 150.379 32.0898 150.807C31.4023 151.235 30.8576 151.818 30.4684 152.571C30.0793 153.31 29.8848 154.153 29.8848 155.087C29.8848 156.021 30.0793 156.851 30.4684 157.59C30.8576 158.33 31.4023 158.913 32.0898 159.354C32.7772 159.782 33.5555 160.003 34.4116 160.003C35.086 160.003 35.6957 159.86 36.2275 159.588C36.5906 159.393 36.876 159.147 37.1484 158.862V159.808H39.6906V150.379H37.1484V151.313V151.3ZM36.6295 156.916C36.1885 157.396 35.6049 157.629 34.8915 157.629C34.4245 157.629 34.0095 157.526 33.6463 157.305C33.2831 157.085 33.0107 156.786 32.8032 156.41C32.5956 156.021 32.5049 155.58 32.5049 155.074C32.5049 154.568 32.6086 154.14 32.8032 153.751C33.0107 153.362 33.2831 153.064 33.6463 152.856C34.0095 152.636 34.4116 152.532 34.8915 152.532C35.3714 152.532 35.7864 152.636 36.1496 152.856C36.5128 153.077 36.7852 153.375 36.9927 153.751C37.2003 154.14 37.2911 154.581 37.2911 155.074C37.2911 155.826 37.0706 156.449 36.6295 156.916Z" fill="white"/>
<path d="M49.1105 150.69C48.5657 150.34 47.9431 150.171 47.2557 150.171C46.5682 150.171 45.8937 150.327 45.336 150.638C45.0247 150.807 44.7653 151.027 44.5318 151.261V150.353H41.9766V159.782H44.5318V154.374C44.5318 153.997 44.6096 153.66 44.7782 153.375C44.9469 153.09 45.1674 152.869 45.4527 152.713C45.7381 152.558 46.0623 152.48 46.4255 152.48C46.9833 152.48 47.4372 152.662 47.7874 153.012C48.1377 153.362 48.3193 153.816 48.3193 154.374V159.782H50.8745V153.803C50.8745 153.167 50.7188 152.571 50.4075 152.013C50.0962 151.455 49.6682 151.014 49.1234 150.664L49.1105 150.69Z" fill="white"/>
<path d="M56.7603 146.435H54.205V150.365H52V152.609H54.205V159.795H56.7603V152.609H58.9653V150.365H56.7603V146.435Z" fill="white"/>
<path d="M67.1763 150.807C66.4111 150.366 65.555 150.158 64.5951 150.158C63.6353 150.158 62.8052 150.379 62.0399 150.807C61.2746 151.248 60.665 151.831 60.224 152.558C59.783 153.297 59.5625 154.127 59.5625 155.048C59.5625 155.969 59.783 156.812 60.237 157.551C60.691 158.304 61.2876 158.887 62.0529 159.328C62.8182 159.769 63.6742 159.977 64.6211 159.977C65.568 159.977 66.424 159.756 67.1893 159.328C67.9546 158.887 68.5512 158.304 68.9922 157.551C69.4332 156.799 69.6537 155.969 69.6537 155.048C69.6537 154.127 69.4332 153.297 68.9922 152.558C68.5512 151.818 67.9416 151.235 67.1893 150.807H67.1763ZM66.7223 156.384C66.5148 156.773 66.2295 157.072 65.8663 157.279C65.4901 157.5 65.0621 157.603 64.5822 157.603C64.1023 157.603 63.7002 157.5 63.337 157.279C62.9738 157.059 62.6884 156.76 62.4809 156.384C62.2734 155.995 62.1696 155.567 62.1696 155.061C62.1696 154.555 62.2734 154.127 62.4809 153.751C62.6884 153.375 62.9738 153.077 63.337 152.869C63.7002 152.649 64.1152 152.545 64.5822 152.545C65.0491 152.545 65.4901 152.649 65.8533 152.869C66.2165 153.09 66.5018 153.375 66.7094 153.751C66.9169 154.127 67.0207 154.568 67.0207 155.061C67.0207 155.554 66.9169 155.995 66.7223 156.384Z" fill="white"/>
<path d="M76.2821 150.171C75.2315 150.171 74.4143 150.508 73.8566 151.183C73.8566 151.183 73.8566 151.209 73.8306 151.209V150.366H71.2754V159.795H73.8306V154.581C73.8306 153.881 73.9992 153.349 74.3495 153.012C74.6997 152.662 75.1407 152.493 75.6854 152.493C75.9449 152.493 76.1783 152.532 76.3729 152.61C76.5804 152.687 76.749 152.804 76.8917 152.96L78.4871 151.118C78.1888 150.781 77.8516 150.534 77.4884 150.392C77.1252 150.236 76.7101 150.171 76.2561 150.171H76.2821Z" fill="white"/>
<path d="M85.9084 150.768C85.208 150.353 84.4038 150.158 83.4958 150.158C82.5879 150.158 81.7318 150.379 80.9795 150.807C80.2272 151.248 79.6306 151.831 79.1896 152.558C78.7485 153.297 78.541 154.127 78.541 155.061C78.541 155.995 78.7615 156.864 79.2155 157.603C79.6695 158.343 80.2791 158.926 81.0444 159.354C81.8096 159.782 82.6916 159.99 83.6774 159.99C84.4427 159.99 85.1561 159.847 85.8176 159.575C86.4791 159.303 87.0368 158.9 87.4908 158.369L85.9862 156.864C85.7009 157.188 85.3636 157.435 84.9745 157.59C84.5854 157.746 84.1444 157.837 83.6645 157.837C83.1327 157.837 82.6657 157.72 82.2636 157.5C81.8615 157.266 81.5502 156.942 81.3297 156.527C81.2519 156.358 81.187 156.177 81.1352 155.982H88.0097C88.0615 155.749 88.1004 155.541 88.1134 155.372C88.1264 155.191 88.1394 155.022 88.1394 154.854C88.1394 153.959 87.9448 153.154 87.5427 152.441C87.1406 151.728 86.5958 151.17 85.9084 150.768ZM82.1728 152.623C82.549 152.389 82.99 152.285 83.4958 152.285C84.0017 152.285 84.3908 152.389 84.7151 152.584C85.0523 152.791 85.2988 153.077 85.4804 153.453C85.5582 153.634 85.623 153.842 85.6749 154.062H81.1352C81.187 153.907 81.226 153.738 81.3038 153.582C81.5113 153.167 81.7967 152.856 82.1728 152.623Z" fill="white"/>
<path d="M96.8663 150.69C96.3216 150.34 95.699 150.171 95.0115 150.171C94.3241 150.171 93.6496 150.327 93.0918 150.638C92.7805 150.807 92.5211 151.027 92.2877 151.261V150.353H89.7324V159.782H92.2877V154.374C92.2877 153.997 92.3655 153.66 92.5341 153.375C92.7027 153.09 92.9232 152.869 93.2086 152.713C93.4939 152.558 93.8182 152.48 94.1814 152.48C94.7391 152.48 95.1931 152.662 95.5433 153.012C95.8935 153.362 96.0751 153.816 96.0751 154.374V159.782H98.6303V153.803C98.6303 153.167 98.4747 152.571 98.1634 152.013C97.8521 151.455 97.4241 151.014 96.8793 150.664L96.8663 150.69Z" fill="white"/>
<path d="M102.456 156.747C101.989 156.747 101.6 156.903 101.302 157.214C101.003 157.526 100.848 157.915 100.848 158.369C100.848 158.823 101.003 159.212 101.302 159.523C101.6 159.835 101.989 159.99 102.456 159.99C102.923 159.99 103.286 159.835 103.584 159.523C103.883 159.212 104.038 158.823 104.038 158.369C104.038 157.915 103.883 157.526 103.584 157.214C103.286 156.903 102.91 156.747 102.456 156.747Z" fill="white"/>
<path d="M113.612 150.69C113.068 150.34 112.445 150.171 111.758 150.171C111.07 150.171 110.396 150.327 109.838 150.638C109.527 150.807 109.267 151.027 109.034 151.261V150.353H106.479V159.782H109.034V154.374C109.034 153.997 109.112 153.66 109.28 153.375C109.449 153.09 109.669 152.869 109.955 152.713C110.24 152.558 110.564 152.48 110.927 152.48C111.485 152.48 111.939 152.662 112.289 153.012C112.64 153.362 112.821 153.816 112.821 154.374V159.782H115.376V153.803C115.376 153.167 115.221 152.571 114.909 152.013C114.598 151.455 114.17 151.014 113.625 150.664L113.612 150.69Z" fill="white"/>
<path d="M119.999 145.67H117.443V159.795H119.999V145.67Z" fill="white"/>
<path d="M41.6707 101.585L37.2567 88.0788L30.4902 106.198L33.2391 107.228L37.0717 96.9862L39.0805 103.132L39.2919 103.369C39.5298 103.634 44.1685 108.55 50.816 108.55C52.4548 108.55 54.2125 108.246 56.0495 107.519L54.9526 104.783C48.1993 107.479 42.7941 102.695 41.6575 101.585H41.6707Z" fill="white"/>
<path d="M117.859 82.0392L111.582 57.8809L115.044 53.8765L112.824 51.947L109.454 55.8457L104.154 57.0615L99.1325 51.4184L100.031 45.4581H87.3176L83.6172 61.7795L82.5599 62.0174L80.0886 59.5461L78.0137 61.6209L81.2384 64.8456L75.9653 69.4843L71.7627 70.2772L66.7672 70.6737V67.3433L61.1373 64.4227L58.6659 56.0175C58.7716 55.1849 58.8245 54.3391 58.8245 53.4536C58.8245 45.9074 54.9391 40 49.9832 40C45.0273 40 41.1419 45.9074 41.1419 53.4536C41.1419 54.4184 41.2079 55.3567 41.3269 56.2686L39.1066 64.5548L34.6133 67.7663V75.0613L32.4327 76.145L28.3755 85.6604L24.3711 104.717L27.2521 105.325L31.1904 86.559L34.7058 78.2992L37.8644 76.7133L44.6705 74.9556C46.4017 78.0877 52.1109 87.2198 61.2562 90.8145L60.6483 91.9775V99.2329C59.0888 99.4179 56.0492 99.4444 53.1021 97.6602C49.5735 95.5325 47.1154 91.4753 45.7806 85.5811L42.9128 86.2286C44.4458 92.9554 47.3797 97.6602 51.6351 100.211C54.384 101.85 57.1593 102.259 59.2078 102.259C59.7496 102.259 60.2254 102.233 60.6483 102.193V108.457H63.5954V92.7043L68.2605 83.8894L80.4587 79.5679L78.701 89.8365C77.4719 90.5105 76.679 91.4356 76.679 92.6383C76.679 95.5457 81.3441 96.8805 85.6656 96.8805C89.9872 96.8805 94.6523 95.5589 94.6523 92.6383C94.6523 91.4224 93.833 90.4973 92.5775 89.8101L89.1017 75.656L91.8374 69.8808L92.7493 62.6914L108.251 59.1364L104.102 82.0657C102.846 82.7529 102.027 83.678 102.027 84.8938C102.027 87.8013 106.692 89.1361 111.013 89.1361C115.335 89.1361 120 87.8145 120 84.8938C120 83.6648 119.168 82.7132 117.872 82.0392H117.859ZM100.89 57.8148L98.2206 58.4227L98.6303 55.2642L100.89 57.8016V57.8148ZM89.67 48.392H96.6215L96.3175 50.414H91.3484L90.0929 60.2994L86.8022 61.0527L89.67 48.4052V48.392ZM58.6659 66.4579L63.82 69.1275V70.9116L56.0228 71.5327V63.3258C56.4457 62.7311 56.8289 62.0703 57.1593 61.3566L58.6659 66.4579ZM44.1022 54.458C44.8423 53.8897 46.7718 52.7268 49.9567 52.7664C52.9435 52.8193 55.0052 53.8897 55.851 54.4844C55.5338 60.1936 52.666 63.9601 49.9832 63.9601C47.3004 63.9601 44.4194 60.1804 44.1154 54.458H44.1022ZM49.9832 42.9339C52.4545 42.9339 55.0844 46.1189 55.732 51.0748C54.2783 50.4272 52.3488 49.8722 50.0096 49.8325C47.5911 49.7929 45.6749 50.3479 44.2476 50.9955C44.9216 46.0925 47.5251 42.9339 49.9832 42.9339ZM37.5472 73.753V69.2728L41.6573 66.3257L42.9128 61.6342C43.2299 62.2685 43.5735 62.85 43.9568 63.3786V72.101L37.5472 73.753ZM66.1989 81.5106L62.6571 88.1978C57.6747 86.3211 53.7497 82.4886 51.2915 79.4622C48.8466 76.4622 47.34 73.7398 46.9039 72.894V66.0878C47.8554 66.6165 48.8863 66.9072 49.9832 66.9072C51.0801 66.9072 52.1373 66.6033 53.1021 66.0614V74.7177L72.0931 73.1979L77.3265 72.2199L82.5203 67.6473L81.0401 76.2375L66.2121 81.4974L66.1989 81.5106ZM85.6656 93.9334C82.3485 93.9334 80.3133 93.114 79.7318 92.6383C80.3133 92.1625 82.3485 91.3431 85.6656 91.3431C88.9828 91.3431 91.018 92.1625 91.5995 92.6383C91.018 93.114 88.9828 93.9334 85.6656 93.9334ZM85.6656 88.396C84.3837 88.396 83.0754 88.5149 81.8727 88.7528L84.9256 70.9645L89.2868 88.7132C88.1238 88.5017 86.8815 88.3828 85.6656 88.3828V88.396ZM88.9696 69.0482L87.9784 71.1363L86.2736 64.1848L89.6832 63.4051L88.9564 69.0614L88.9696 69.0482ZM93.9387 53.3479H95.9211L95.181 59.1232L93.1458 59.5857L93.9387 53.3479ZM110.26 64.4887L114.542 80.9688C113.405 80.7573 112.19 80.6516 111 80.6516C109.745 80.6516 108.463 80.7705 107.273 80.9952L110.273 64.4755L110.26 64.4887ZM111 86.189C107.683 86.189 105.648 85.3696 105.066 84.8938C105.648 84.4181 107.683 83.5987 111 83.5987C114.317 83.5987 116.353 84.4181 116.934 84.8938C116.353 85.3696 114.317 86.189 111 86.189Z" fill="white"/>
</svg>
