<svg width="531" height="466" viewBox="0 0 531 466" fill="none" xmlns="http://www.w3.org/2000/svg">
<path d="M208.921 0C218.162 12.4698 223.906 30.795 223.906 51.5459C223.906 56.028 223.624 60.4073 223.109 64.6318L223.649 64.4775L235.894 108.114L264.575 123.028V137.841L290.529 135.677L310.104 131.015L337.475 107.599L322.967 93.0703L332.973 83.0498L345.783 95.8779L347.66 95.4141L366.155 14.4004H427.223L423.775 41.1133L450.527 70.4795L476.199 64.2451L493.614 44.127L504.314 53.4004L486.438 74.0859L519.491 194.15L519.337 194.229C526.231 197.68 530.732 202.549 530.732 208.911C530.732 223.542 507.118 230.188 485.177 230.188C463.235 230.188 439.621 223.517 439.621 208.911C439.621 202.471 444.225 197.577 451.222 194.125L470.334 80.2939L393.68 98.8916L388.175 135.032L375.056 160.586L392.882 233.485C399.364 236.937 403.583 241.651 403.583 247.808C403.583 262.439 379.969 269.085 358.027 269.085C336.085 269.085 312.472 262.413 312.472 247.808C312.472 241.394 317.024 236.5 324.021 233.048L332.51 179.442L272.574 202.085L248.344 252.677V326.838L281.192 462.308L281.508 466H267.403L267.275 464.497L267.225 464.445L234.222 328.384V300.976C231.932 301.207 229.308 301.388 226.376 301.388C215.907 301.388 201.836 299.327 187.816 290.955C166.081 277.972 151.136 253.938 143.342 219.55L157.129 216.407C163.997 246.752 176.705 267.72 194.865 278.668C210.35 287.993 226.247 287.684 234.195 286.705V249.327L237.282 242.862C190.209 224.444 160.859 177.047 152.139 161.23L116.898 170.323L100.538 178.515L82.4551 221.069L62.082 318.183L16.8604 414.06L16.0117 454.45L38.3906 447.65L41.6836 409.783L77.4385 361.896L79.3164 323.206L113.889 230.472L136.113 298.58C141.773 304.17 169.759 329.182 204.742 315.169L209.99 328.332C200.627 332.093 191.675 333.612 183.366 333.612C162.145 333.612 144.988 323.772 134.802 316.07L127.419 360.429C129.014 367.822 134.647 385.157 144.293 387.115C148.897 388.043 162.145 386.265 185.99 349.867L197.823 357.646C178.557 387.064 161.631 401.489 146.3 401.489C144.679 401.489 143.059 401.335 141.464 401C130.712 398.81 123.817 389.794 119.521 380.907L105.837 414.24L99.665 466H85.3994L91.998 410.711L113.374 358.677L122.634 302.984L112.988 273.438L93.3359 326.168L91.3545 366.997L55.4453 415.116L53.002 443.322L72.5771 437.372L76.667 450.922L51.458 458.572L44.2812 460.762L44.7285 466H30.585L30.4941 464.935L27.0039 466H0.730469V459.158L1.8125 458.83L2.8418 410.788L48.6543 313.675L68.9502 216.845L89.6055 168.236L100.847 162.596V125.141L123.766 108.706L135.213 66.0225C134.57 61.3859 134.235 56.5431 134.235 51.5459C134.235 30.7948 139.98 12.4698 149.222 0H169.506C159.831 5.88916 152.171 20.3142 149.489 37.9189C156.615 34.4157 166.57 31.4023 179.251 31.6084C191.495 31.7887 201.553 34.8793 208.833 38.3311C206.205 20.5373 198.491 5.93459 188.739 0H208.921ZM236.202 358.136L152.012 466H134.053L225.063 349.403L236.202 358.136ZM241.578 402.983L203.938 466H187.454L229.437 395.719L241.578 402.983ZM231.102 466H228.538L228.717 465.347L231.102 466ZM358.13 240.595C340.072 240.595 329.526 245.206 327.057 247.705C329.527 250.204 340.073 254.814 358.13 254.814C376.187 254.814 386.733 250.204 389.203 247.705C386.734 245.206 376.188 240.595 358.13 240.595ZM195.508 115.455C190.44 118.417 184.833 120.041 179.097 120.041C173.36 120.041 167.907 118.469 162.917 115.584V151.287C167.702 160.355 196.692 212.285 243.481 230.085L262.332 190.732L335.082 163.239L341.487 122.797L316.716 143.997L292.253 149.741L195.508 157.778V115.455ZM339.197 228.205C345.242 227.046 351.751 226.453 358.13 226.453L358.155 226.479C364.56 226.479 371.094 227.071 377.165 228.23L354.117 133.951L339.197 228.205ZM485.306 201.724C467.248 201.724 456.701 206.335 454.231 208.834C456.701 211.333 467.248 215.943 485.306 215.943C503.363 215.943 513.909 211.333 516.379 208.834C513.909 206.335 503.363 201.724 485.306 201.724ZM262.332 190.732L262.285 190.751L262.337 190.725L262.332 190.732ZM466.476 189.282C472.495 188.123 479.209 187.557 485.306 187.557C491.402 187.557 497.627 188.097 503.44 189.153L480.495 105.821L466.476 189.282ZM136.165 117.259L115.021 132.405V156.232L148.795 147.526V102.396C146.583 99.3301 144.602 95.9551 142.853 92.2715L136.165 117.259ZM216.267 90.3652C214.363 94.6413 212.151 98.5573 209.682 102.061V142.374L250.479 139V131.633L223.983 117.851V117.825L216.267 90.3652ZM361.988 106.517L370.04 139.515L374.645 130.524L374.67 130.499L378.966 102.396L361.988 106.517ZM179.02 45.7764C161.039 45.5703 150.955 53.1951 148.537 55.2559C149.669 83.05 163.2 105.898 179.122 105.898C195.045 105.898 208.575 83.0757 209.707 55.2812C206.594 52.7053 195.559 46.034 179.02 45.7764ZM377.474 28.543L363.068 91.6797L381.229 87.2744L388.998 36.3477H410.168L411.171 28.543H377.474ZM401.165 50.5156L396.098 83.668L403.943 81.7617L408.265 50.5156H401.165ZM418.733 78.1816L434.888 74.2656L421.332 59.377L418.733 78.1816Z" fill="#CFE5FF"/>
</svg>
