<svg width="247" height="216" viewBox="0 0 247 216" fill="none" xmlns="http://www.w3.org/2000/svg">
<path d="M99.7246 0C104.188 5.94198 106.968 14.7134 106.968 24.6533C106.968 26.7883 106.832 28.8744 106.586 30.8867L106.845 30.8125L112.701 51.5996L126.421 58.7051V65.7607L138.836 64.7295L148.199 62.5088L161.291 51.3545L154.352 44.4336L159.138 39.6602L165.266 45.7715L166.164 45.5498L175.011 6.95801H204.222L202.572 19.6836L215.369 33.6719L227.649 30.7021L235.979 21.1191L241.098 25.5361L232.546 35.3896L246.73 86.6992V99.4512C245.331 98.2384 240.341 96.1924 232.005 96.1924C223.367 96.1924 218.322 98.3888 217.141 99.5791C218.322 100.769 223.367 102.966 232.005 102.966C240.342 102.966 245.331 100.919 246.73 99.7061V107.313C242.6 108.964 237.173 109.752 231.943 109.752C221.448 109.752 210.153 106.573 210.152 99.6162C210.152 96.5486 212.354 94.2166 215.701 92.5723L224.844 38.3477L188.177 47.207L185.543 64.4229L179.269 76.5957L187.795 111.322C190.896 112.967 192.914 115.212 192.914 118.145C192.914 125.114 181.619 128.28 171.123 128.28C160.627 128.28 149.331 125.102 149.331 118.145C149.331 115.089 151.51 112.758 154.856 111.113L158.917 85.5781L130.247 96.3643L118.656 120.464V155.792L133.316 216H126.387L111.901 156.528V143.472C110.806 143.582 109.551 143.668 108.148 143.668C103.141 143.668 96.4099 142.686 89.7041 138.698C79.3071 132.514 72.1579 121.065 68.4297 104.684L75.0254 103.187C78.3107 117.642 84.3893 127.631 93.0762 132.846C100.483 137.287 108.088 137.14 111.89 136.674V118.869L113.365 115.789C90.8484 107.015 76.8089 84.4366 72.6377 76.9023L55.7812 81.2344L47.9551 85.1357L39.3057 105.407L29.5605 151.669L7.92969 197.341L7.53613 216H0.789062L1.22363 195.783L23.1377 149.521L32.8457 103.396L42.7266 80.2402L48.1035 77.5527V59.7109L59.0664 51.8818L64.542 31.5488C64.2344 29.3403 64.0742 27.0336 64.0742 24.6533C64.0742 14.7133 66.8537 5.94198 71.3174 0H81.1104C76.4046 2.74069 72.6693 9.67561 71.3711 18.1611C74.7794 16.4924 79.5416 15.0571 85.6074 15.1553C91.4639 15.2412 96.2748 16.7132 99.7568 18.3574C98.4848 9.78103 94.7226 2.76122 89.9795 0H99.7246ZM64.9727 142.331C67.6802 144.994 81.0673 156.909 97.8008 150.233L100.311 156.504C95.8318 158.295 91.5494 159.02 87.5752 159.02C77.4243 159.019 69.2172 154.332 64.3447 150.663L60.8135 171.793C61.5764 175.315 64.2716 183.573 68.8857 184.506C71.0886 184.947 77.4257 184.099 88.8311 166.762L94.4912 170.468C85.2752 184.481 77.1782 191.353 69.8447 191.353C69.0698 191.353 68.2948 191.28 67.5322 191.12C62.3891 190.077 59.091 185.782 57.0361 181.549L50.4902 197.427L48.2656 216H41.4424L43.8701 195.746L54.0957 170.959L58.5254 144.429L53.9111 130.354L44.5098 155.473L43.5625 174.922L26.3857 197.845L25.2168 211.281L34.5811 208.446L36.5371 214.9L32.8984 216H9.44727L18.2285 213.343L19.8027 195.305L36.9062 172.492L37.8047 154.062L54.3418 109.887L64.9727 142.331ZM112.849 170.701L77.3457 216H68.7549L107.521 166.541L112.849 170.701ZM115.421 192.064L101.064 216H93.1807L109.613 188.604L115.421 192.064ZM171.172 114.709C162.534 114.709 157.489 116.905 156.308 118.096C157.489 119.286 162.534 121.482 171.172 121.482C179.809 121.482 184.854 119.286 186.035 118.096C184.854 116.905 179.809 114.709 171.172 114.709ZM93.3838 55.0967C90.9598 56.5078 88.2771 57.2812 85.5332 57.2812C82.7894 57.2812 80.181 56.5325 77.7939 55.1582V72.166C80.0831 76.4862 93.9499 101.223 116.331 109.702L125.349 90.9551L160.147 77.8594L163.211 58.5938L151.361 68.6934L139.66 71.4297L93.3838 75.2578V55.0967ZM162.116 108.807C165.008 108.255 168.121 107.973 171.172 107.973L171.185 107.984C174.248 107.984 177.374 108.267 180.277 108.819L169.252 63.9072L162.116 108.807ZM125.349 90.9551L125.325 90.9648L125.351 90.9521L125.349 90.9551ZM222.998 90.2656C225.877 89.7134 229.089 89.4434 232.005 89.4434C234.921 89.4434 237.899 89.701 240.68 90.2041L229.704 50.5078L222.998 90.2656ZM64.9971 55.9561L54.8828 63.1709V74.5215L71.0381 70.374V48.876C69.9799 47.4157 69.033 45.8075 68.1963 44.0527L64.9971 55.9561ZM103.313 43.1455C102.403 45.1823 101.344 47.0471 100.163 48.7158V67.9199L119.678 66.3125V62.8027L107.004 56.2383V56.2256L103.313 43.1455ZM173.018 50.8389L176.869 66.5576L179.071 62.2754L179.084 62.2627L181.139 48.876L173.018 50.8389ZM85.4961 21.9043C76.8954 21.8062 72.0716 25.4383 70.915 26.4199C71.4564 39.6602 77.9295 50.5449 85.5459 50.5449C93.162 50.5445 99.6343 39.6724 100.176 26.4326C98.687 25.2055 93.4078 22.027 85.4961 21.9043ZM180.425 13.6953L173.534 43.7705L182.221 41.6729L185.938 17.4131H196.063L196.544 13.6953H180.425ZM191.757 24.1621L189.333 39.9551L193.086 39.0469L195.153 24.1621H191.757ZM200.161 37.3408L207.888 35.4756L201.403 28.3828L200.161 37.3408Z" fill="#CFE5FF"/>
</svg>
