<svg width="469" height="249" viewBox="0 0 469 249" fill="none" xmlns="http://www.w3.org/2000/svg">
<path d="M147.918 0C156.734 12.4393 162.179 30.3429 162.179 50.5459C162.179 55.028 161.896 59.4073 161.382 63.6318L161.922 63.4775L174.166 107.114L202.848 122.028V136.841L228.802 134.677L248.377 130.015L275.747 106.599L261.239 92.0703L271.245 82.0498L284.056 94.8779L285.933 94.4141L304.428 13.4004H365.495L362.048 40.1133L388.8 69.4795L414.472 63.2451L431.887 43.127L442.587 52.4004L424.71 73.0859L457.764 193.15L457.609 193.229C464.503 196.68 469.005 201.549 469.005 207.911C469.005 222.542 445.391 229.188 423.449 229.188C401.507 229.188 377.894 222.517 377.894 207.911C377.894 201.471 382.498 196.577 389.494 193.125L408.606 79.2939L331.952 97.8916L326.447 134.032L313.328 159.586L331.154 232.485C337.636 235.937 341.855 240.651 341.855 246.808C341.855 247.559 341.792 248.29 341.671 249H323.841C325.608 248.17 326.824 247.365 327.476 246.705C325.006 244.206 314.46 239.595 296.402 239.595C278.345 239.595 267.799 244.206 265.329 246.705C265.981 247.365 267.197 248.17 268.964 249H250.929C250.807 248.29 250.744 247.559 250.744 246.808C250.744 240.394 255.297 235.5 262.293 232.048L270.782 178.442L210.847 201.085L187.898 249H172.468V248.328L175.555 241.862C128.482 223.444 99.1315 176.047 90.4111 160.23L55.1709 169.323L38.8105 177.515L20.7275 220.069L14.6582 249H0.273438L7.22266 215.845L27.8779 167.236L39.1191 161.596V124.141L62.0381 107.706L73.4854 65.0225C72.8423 60.3859 72.5078 55.5431 72.5078 50.5459C72.5078 30.3427 77.9537 12.4393 86.7695 0H106.267C97.31 6.41682 90.3026 20.2414 87.7617 36.9189C94.887 33.4157 104.842 30.4023 117.523 30.6084C129.768 30.7887 139.826 33.8793 147.105 37.3311C144.615 20.4666 137.555 6.46877 128.522 0H147.918ZM58.5332 249H44.8809L52.1611 229.472L58.5332 249ZM95.4014 215.407C98.3239 228.319 102.305 239.533 107.312 249H91.5684C87.4904 239.979 84.1687 229.82 81.6143 218.55L95.4014 215.407ZM133.78 114.455C128.713 117.417 123.105 119.041 117.369 119.041C111.633 119.041 106.18 117.469 101.189 114.584V150.287C105.974 159.355 134.964 211.285 181.754 229.085L200.604 189.732L273.354 162.239L279.76 121.797L254.988 142.997L230.525 148.741L133.78 156.778V114.455ZM277.47 227.205C283.515 226.046 290.023 225.453 296.402 225.453L296.428 225.479C302.833 225.479 309.367 226.071 315.438 227.23L292.39 132.951L277.47 227.205ZM423.578 200.724C405.52 200.724 394.973 205.335 392.504 207.834C394.973 210.333 405.521 214.943 423.578 214.943C441.635 214.943 452.182 210.333 454.651 207.834C452.182 205.335 441.636 200.724 423.578 200.724ZM200.604 189.732L200.558 189.751L200.609 189.725L200.604 189.732ZM404.748 188.282C410.767 187.123 417.482 186.557 423.578 186.557C429.674 186.557 435.9 187.097 441.713 188.153L418.768 104.821L404.748 188.282ZM74.4375 116.259L53.293 131.405V155.232L87.0674 146.526V101.396C84.8552 98.3301 82.8742 94.9551 81.125 91.2715L74.4375 116.259ZM154.539 89.3652C152.636 93.6413 150.424 97.5573 147.954 101.061V141.374L188.751 138V130.633L162.256 116.852V116.825L154.539 89.3652ZM300.261 105.517L308.312 138.515L312.917 129.524L312.942 129.499L317.238 101.396L300.261 105.517ZM117.292 44.7764C99.3115 44.5703 89.2275 52.1951 86.8096 54.2559C87.9415 82.05 101.472 104.898 117.395 104.898C133.317 104.898 146.848 82.0757 147.979 54.2812C144.867 51.7053 133.832 45.034 117.292 44.7764ZM315.746 27.543L301.341 90.6797L319.502 86.2744L327.271 35.3477H348.44L349.443 27.543H315.746ZM339.438 49.5156L334.37 82.668L342.216 80.7617L346.537 49.5156H339.438ZM357.006 77.1816L373.16 73.2656L359.604 58.377L357.006 77.1816Z" fill="#CFE5FF"/>
</svg>
