<svg width="645" height="940" viewBox="0 0 645 940" fill="none" xmlns="http://www.w3.org/2000/svg">
<path fill-rule="evenodd" clip-rule="evenodd" d="M592.243 88.1987L631.502 230.822L631.319 230.913C639.507 235.014 644.854 240.797 644.854 248.355C644.854 265.735 616.807 273.63 590.746 273.63C564.685 273.63 536.638 265.705 536.638 248.355C536.638 240.705 542.107 234.891 550.417 230.791L573.117 95.5731L482.072 117.666L475.534 160.596L459.952 190.951L481.125 277.546C488.824 281.647 493.835 287.246 493.835 294.56C493.835 311.94 465.788 319.835 439.727 319.835C413.666 319.835 385.619 311.909 385.619 294.56C385.619 286.94 391.027 281.127 399.337 277.026L409.419 213.349L338.233 240.246L309.453 300.343V388.438L348.468 549.359L360.628 691.921L332.428 698.989V801.833L308.261 889.377V940H291.58V886.96L315.747 799.415V685.709L342.785 678.947L331.939 551.96L331.878 551.899L292.68 390.274V357.716C289.961 357.992 286.844 358.206 283.362 358.206C270.927 358.206 254.215 355.758 237.564 345.813C211.747 330.391 193.997 301.842 184.739 260.992L201.115 257.259C209.273 293.305 224.365 318.213 245.935 331.217C264.328 342.294 283.209 341.927 292.649 340.764V296.365L296.316 288.685C240.405 266.806 205.545 210.504 195.188 191.716L153.332 202.517L133.901 212.248L112.423 262.798L88.2254 378.157L34.5149 492.047L33.5066 540.026L60.0869 531.948L63.9976 486.967L106.465 430.083L108.695 384.123L149.757 273.966L176.154 354.871C182.876 361.511 216.116 391.222 257.667 374.577L263.9 390.213C252.779 394.68 242.147 396.486 232.278 396.486C207.073 396.486 186.695 384.797 174.596 375.647L165.828 428.339C167.722 437.121 174.413 457.714 185.87 460.04C191.339 461.142 207.073 459.03 235.395 415.794L249.449 425.035C226.565 459.979 206.462 477.114 188.253 477.114C186.328 477.114 184.403 476.931 182.509 476.533C169.738 473.932 161.55 463.222 156.448 452.666L140.194 492.261L125.499 615.514L281.803 415.243L295.032 425.616L122.138 647.154L128.86 784.361L136.009 812.971L162.009 694.063L209.945 599.266L286.997 470.26L301.418 478.889L224.518 607.651L177.987 699.754L145.205 849.721L163.72 923.862L213.856 795.438L252.84 674.907L286.142 552.97L302.334 557.407L268.88 679.895L229.59 801.313L175.45 940H150.295L112.087 786.931L105.121 644.247L123.757 488.069L149.146 426.259L160.145 360.103L148.688 325.006L125.346 387.642L122.994 436.142L80.343 493.301L77.4405 526.807L100.691 519.739L105.548 535.834L75.6074 544.922L67.0834 547.523L97.2994 901.097L75.974 939.437L43.4055 906.819L25.8686 560.099L16.2447 563.037V562.945L0 567.869V550.288L16.6419 545.228L17.864 488.161L72.2772 372.802L96.3828 257.779L120.916 200.039L134.267 193.338V148.846L161.489 129.324L175.085 78.6212C174.321 73.1133 173.924 67.3607 173.924 61.4244C173.924 36.6671 180.806 14.8163 191.866 0H216.135C204.492 6.87017 195.256 24.1311 192.041 45.2375C200.504 41.076 212.328 37.4959 227.39 37.7407C241.933 37.9549 253.879 41.6268 262.525 45.727C259.375 24.3953 250.074 6.92253 238.34 0H262.486C273.546 14.8163 280.428 36.6671 280.428 61.4244C280.428 66.7487 280.092 71.9505 279.481 76.9688L280.123 76.7852L294.666 128.62L328.731 146.337V163.932L359.558 161.361L382.808 155.823L415.316 128.008L398.085 110.75L409.969 98.8472L425.184 114.086L427.415 113.535L449.381 17.3004H521.912L517.818 49.0318L549.592 83.9148L580.083 76.5098L600.767 52.6119L613.477 63.6276L592.243 88.1987ZM511.83 93.064L531.017 88.4129L514.916 70.7266L511.83 93.064ZM502.848 34.0994H462.824L445.715 109.098L467.285 103.866L476.512 43.3709H501.656L502.848 34.0994ZM311.989 156.557L280.52 140.187V140.156L271.355 107.537C269.094 112.617 266.466 117.268 263.533 121.429V169.317L311.989 165.309V156.557ZM227.115 54.5702C205.759 54.3254 193.783 63.3828 190.911 65.8307C192.255 98.8472 208.326 125.989 227.237 125.989C246.149 125.989 262.219 98.8778 263.564 65.8613C259.867 62.8014 246.76 54.8762 227.115 54.5702ZM184.159 109.802L176.215 139.483L151.102 157.475V185.78L191.216 175.437V121.827C188.589 118.186 186.236 114.177 184.159 109.802ZM72.1856 911.745L80.1902 897.364L50.7075 552.48L42.4889 554.989L59.9036 899.444L72.1856 911.745ZM326.069 226.761L326.073 226.752L326.012 226.782L326.069 226.761ZM303.679 273.507L326.069 226.761L412.475 194.102L420.082 146.062L390.66 171.245L361.605 178.069L246.699 187.615V137.341C240.68 140.86 234.02 142.788 227.207 142.788C220.394 142.788 213.917 140.921 207.99 137.494V179.904C213.672 190.675 248.104 252.363 303.679 273.507ZM402.942 294.437C405.875 297.405 418.402 302.883 439.849 302.883C461.297 302.883 473.823 297.405 476.756 294.437C473.823 291.469 461.297 285.992 439.849 285.992C418.402 285.992 405.875 291.469 402.942 294.437ZM417.363 271.274C424.543 269.897 432.272 269.193 439.849 269.193L439.88 269.223C447.487 269.223 455.247 269.927 462.458 271.304L435.083 159.311L417.363 271.274ZM453.995 165.921L459.464 155.242L459.494 155.211L464.596 121.827L444.432 126.723L453.995 165.921ZM499.395 60.2005H490.963L484.944 99.5816L494.262 97.3173L499.395 60.2005ZM612.438 224.885L585.185 125.897L568.535 225.038C575.684 223.661 583.658 222.988 590.899 222.988C598.14 222.988 605.533 223.631 612.438 224.885ZM553.992 248.263C556.925 251.231 569.451 256.708 590.899 256.708C612.346 256.708 624.873 251.231 627.806 248.263C624.873 245.295 612.346 239.818 590.899 239.818C569.451 239.818 556.925 245.295 553.992 248.263Z" fill="#CFE5FF"/>
</svg>
