<svg width="434" height="61" viewBox="0 0 434 61" fill="none" xmlns="http://www.w3.org/2000/svg">
<path d="M431.623 58.8513H433.994V9.46797H431.623V31.2524H431.5C429.811 25.6484 424.879 22.4655 419.633 22.4655C409.953 22.4655 405.328 30.6269 405.328 41.1414C405.328 50.9623 409.511 59.6749 419.197 59.6749C424.946 59.6749 428.878 56.8388 431.5 51.2348H431.623V58.8451V58.8513ZM419.695 57.3961C411.452 57.3961 407.7 49.5133 407.7 41.1414C407.7 32.7695 411.133 24.7505 419.628 24.7505C428.123 24.7505 431.556 32.8438 431.556 41.1414C431.556 49.439 427.809 57.3961 419.689 57.3961M399.138 31.7354C399.138 24.4037 393.518 22.4655 387.897 22.4655C380.342 22.4655 375.969 26.41 375.656 34.2246H378.027C378.34 28.0695 382.148 24.7505 387.897 24.7505C395.206 24.7505 396.828 30.1439 396.828 31.7354C396.828 37.5437 396.392 38.3053 385.772 39.1351C380.465 39.6181 373.967 41.3457 373.967 49.6496C373.967 57.1174 378.653 59.681 384.71 59.681C390.766 59.681 395.139 56.0152 396.638 51.7983H396.761V53.6684C396.761 56.5725 397.326 58.8575 401.073 58.8575C401.699 58.8575 402.32 58.7212 403.008 58.5788V56.3682C402.258 56.5044 401.693 56.5787 401.257 56.5787C399.132 56.5787 399.132 54.3681 399.132 52.2875V31.7354H399.138ZM396.767 45.2902C396.767 47.1603 395.581 57.3961 384.771 57.3961C379.151 57.3961 376.338 53.9408 376.338 49.6496C376.338 44.3242 379.526 42.1136 385.146 41.4201C389.771 40.7265 394.888 41.0052 396.767 38.6521V45.2902ZM365.411 58.8451H367.782V9.46797H365.411V58.8513V58.8451ZM330.554 58.8451H332.925V50.8942H333.048C333.546 52.7643 336.795 59.681 345.228 59.681C349.663 59.681 359.159 57.1918 359.159 40.2435C359.159 30.3545 354.662 22.4655 345.228 22.4655C340.044 22.4655 334.86 25.3016 333.048 30.8313H332.925V9.46797H330.554V58.8513V58.8451ZM345.234 57.3899C336.487 57.3899 332.992 48.9499 332.992 40.2373C332.992 31.5248 336.868 24.7443 345.234 24.7443C352.918 24.7443 356.787 32.3546 356.787 40.2373C356.787 48.1201 353.667 57.3899 345.234 57.3899ZM319.448 37.5809C319.448 31.8468 318.011 27.7847 315.421 25.3945C313.408 23.5616 310.601 22.608 307.436 22.608C303.336 22.608 300.389 25.1592 298.734 30.1749V24.1251H286.364V24.9982H291.542V57.9658H286.364V58.8389H303.767V57.9658H298.734V35.9956C298.734 32.8128 299.455 29.7848 300.893 27.3141C302.33 24.7629 304.27 23.4935 306.792 23.4935C310.461 23.4935 312.256 26.0447 312.256 34.6395V57.972H307.223V58.8451H324.626V57.972H319.448V37.587V37.5809ZM261.411 38.615L261.484 35.2711C261.556 32.8004 261.702 30.0139 262.418 27.8652C263.352 25.0787 265.08 23.4873 268.385 23.4873C270.253 23.4873 271.55 23.8836 272.557 24.8434C274.715 26.9921 274.928 31.531 275.073 38.6212H261.411V38.615ZM281.907 39.4881C281.907 29.2956 275.364 22.608 268.748 22.608C260.55 22.608 253.358 31.7663 253.358 42.4356C253.358 53.1049 260.192 60.356 269.251 60.356C274.715 60.356 279.681 57.167 281.694 51.9159L280.973 51.6001C278.96 56.3806 274.503 59.4829 269.251 59.4829C261.775 59.4829 261.411 51.9964 261.411 42.8381V39.4943H281.907V39.4881ZM242 9.79616C240.848 11.7839 239.126 14.0131 236.173 14.1741C235.743 14.1741 235.239 14.0936 234.809 14.0131V24.1251H229.272V24.9982H234.809V49.5257C234.809 56.6159 236.895 60.356 242.431 60.356C245.596 60.356 248.834 58.8451 249.908 54.1452L249.119 53.9037C248.258 57.167 246.312 59.0804 244.086 59.0804C242.431 59.0804 242 58.1268 242 55.8171V25.0044H249.192V24.1313H242V9.79616ZM213.592 51.1233C213.592 52.4794 213.737 53.7489 214.095 55.0245C212.585 57.5757 210.857 59.2414 207.625 59.2414C204.392 59.2414 202.949 57.489 202.949 51.5196C202.949 45.9466 203.883 44.9125 208.413 42.6771C210.784 41.482 212.585 40.0516 213.592 38.0577V51.1171V51.1233ZM220.783 39.098C220.783 28.9055 216.253 22.6142 208.698 22.6142C203.235 22.6142 199.208 26.1995 199.208 29.4628C199.208 31.2957 200.791 31.9335 203.022 31.9335C205.253 31.9335 206.4 30.9799 206.4 29.308L206.182 26.3605C206.182 24.5276 206.758 23.4935 209.056 23.4935C210.493 23.4935 211.791 23.8898 212.652 25.1654C213.513 26.441 213.877 28.5897 213.877 32.4908C213.877 34.6395 213.519 35.9956 213.016 37.1907C212.082 39.42 210.281 41.1724 205.678 42.448C198.845 44.3614 195.54 46.0333 195.54 51.3648C195.54 56.6964 200.36 60.3622 206.758 60.3622C210.712 60.3622 212.585 58.9256 214.598 55.9843C215.823 58.294 217.976 59.7244 221.214 59.7244C223.518 59.7244 224.737 59.2476 225.962 56.6221L225.173 56.2258C224.597 57.4209 223.948 58.616 222.584 58.616C221.219 58.616 220.789 57.3404 220.789 54.1575V39.1042L220.783 39.098ZM191.513 29.6238C191.513 28.1872 190.507 26.3605 188.493 24.8434C186.48 23.3325 183.533 22.6142 180.726 22.6142C176.408 22.6142 172.382 24.6081 169.289 28.5835C166.197 32.4846 164.687 37.5004 164.687 42.4418C164.687 47.3832 166.197 52.0769 169.217 55.4208C172.164 58.6841 176.19 60.356 180.29 60.356C185.826 60.356 190.719 57.65 193.09 51.9159L192.369 51.6001C190.065 56.7769 185.535 59.4829 180.357 59.4829C174.39 59.4829 172.734 54.2257 172.734 41.7235C172.734 29.2213 174.39 23.4873 180.357 23.4873C182.37 23.4873 183.88 24.4409 183.88 26.6763C183.88 27.6299 183.662 28.5897 183.662 29.5433C183.662 32.014 185.82 32.4103 187.543 32.4103C190.132 32.4103 191.496 31.4567 191.496 29.6238M137.777 25.0044C139.141 23.8093 141.155 23.4935 142.452 23.4935C145.187 23.4935 147.127 24.2118 148.492 26.441C149.213 27.6361 149.929 29.9458 150.147 33.7664C150.293 36.3176 150.293 40.0578 150.293 41.4139L150.147 48.8198C150.147 50.1759 149.644 54.1575 148.783 55.91C147.631 58.3002 145.69 59.4953 142.525 59.4953C137.134 59.4953 135.406 56.3125 134.903 49.6186C134.757 47.7857 134.684 45.8785 134.684 44.0456C134.684 40.7823 134.684 37.5189 134.83 34.2494C134.903 32.1812 135.406 27.1593 137.777 25.0106M158.345 41.4944C158.345 30.8251 150.293 22.6203 142.525 22.6203C134.757 22.6203 126.632 30.8994 126.632 41.4944C126.632 52.0893 134.757 60.3684 142.525 60.3684C145.617 60.3684 148.783 59.0123 151.445 56.7831C155.471 53.3587 158.351 47.8662 158.351 41.4944M89.5268 24.1374V25.0106H93.4805L108.155 61.0062H108.731L120.67 25.0106H124.697V24.1374H114.843V25.0106H119.731L111.46 49.8539L101.679 25.0106H107.937V24.1374H89.5268ZM69.1038 58.8575C66.3692 58.8575 64.7866 57.6624 63.7799 55.4332C62.7733 53.2039 62.27 48.5845 62.27 40.0639C62.27 32.4165 62.846 28.5959 63.998 26.6082C65.1501 24.5399 66.8781 23.4996 69.1765 23.4996C73.4937 23.4996 76.7988 27.1655 77.0169 32.3422C77.0896 34.8934 77.1623 37.6799 77.1623 40.6213C77.1623 45.1602 77.0169 48.5845 76.7317 50.8942C76.4465 53.2039 75.5797 55.1112 74.2151 56.6283C72.8506 58.1392 71.1226 58.8575 69.1094 58.8575M71.4134 0.241498V1.11461H76.5919V27.3141C74.6513 23.9703 72.3473 22.6142 69.1821 22.6142C66.3077 22.6142 62.0631 24.2861 58.9706 28.0324C55.9508 31.6982 54.2227 35.9956 54.2227 41.1724C54.2227 45.8723 55.7327 50.6465 58.8979 54.3124C61.9904 57.8977 65.5863 59.7244 69.0367 59.7244C72.2746 59.7244 74.7911 58.133 76.5863 54.4672V58.8451H88.9564V57.972H83.7779V0.241498H71.4078H71.4134ZM21.9329 13.4558L30.422 37.104H13.5221L21.9385 13.4558H21.9329ZM5.10575 57.972H0V58.8451H12.2974V57.972H6.11236L13.1586 37.9834H30.7799L37.7535 57.972H30.8526V58.8451H52.573V57.972H47.3946L26.4683 0H25.8923L5.10575 57.972Z" fill="#231F20"/>
</svg>
