<svg width="290" height="66" viewBox="0 0 290 66" fill="none" xmlns="http://www.w3.org/2000/svg">
<path d="M0 58.5793C2.73913 58.5511 4.51283 57.9432 5.33233 56.7554C6.15182 55.5676 6.56157 53.7887 6.56157 51.4131V8.61857C6.56157 6.17543 6.09569 4.56542 5.15832 3.7942C4.22096 3.02298 2.56513 2.52196 0.174002 2.28553V0H18.2758L32.4149 41.6912H33.0099L47.0648 0H65.1779V2.28553C62.7475 2.52196 61.086 3.07927 60.1935 3.96871C59.3067 4.85815 58.8577 7.03672 58.8577 10.51V50.3548C58.8577 53.6705 59.3011 55.8378 60.1935 56.8623C61.0804 57.8869 62.7418 58.4611 65.1779 58.5793V60.8648H41.3227V58.5793C43.45 58.4892 45.0554 58.0445 46.1274 57.2395C47.2051 56.4345 47.744 54.6669 47.744 51.9422V7.9149H47.2163L29.6028 60.8648H27.6776L9.89568 8.96759H9.58135V49.6905C9.58135 52.6966 10.0248 54.892 10.9172 56.2769C11.8041 57.6617 13.7686 58.4273 16.8109 58.5736V60.8592H0V58.5736V58.5793Z" fill="#050A50"/>
<path d="M64.6067 58.7086C65.9875 58.506 66.9473 58.095 67.4805 57.4758C68.0194 56.8622 68.3112 55.6744 68.3561 53.9124L68.4235 51.2722V26.7732C68.4235 24.8817 68.1653 23.5926 67.6489 22.917C67.1325 22.2359 66.1166 21.7799 64.5955 21.5435V19.3874H78.2069V26.4692C79.728 23.9754 81.2435 21.9995 82.7422 20.5302C84.2409 19.0665 85.9753 18.3291 87.9454 18.3291C89.4216 18.3291 90.7519 18.9202 91.9363 20.108C93.1206 21.2958 93.71 23.0353 93.71 25.3208C93.71 27.0772 93.2946 28.5295 92.4639 29.6723C91.6332 30.8151 90.5499 31.3893 89.214 31.3893C87.6929 31.3893 86.3738 30.4942 85.2568 28.704C84.1454 26.9139 83.3652 26.0188 82.9162 26.0188C81.9564 26.0188 80.9853 26.7619 80.0143 28.2424C79.0433 29.723 78.5549 31.8452 78.5549 34.6036V51.6606C78.5549 54.6329 78.8973 56.4906 79.5877 57.2337C80.2781 57.9768 81.6533 58.4665 83.7076 58.6974V60.8534H64.5898V58.6974L64.6067 58.7086Z" fill="#050A50"/>
<path d="M86.7939 50.6081C88.0849 49.3134 89.6509 48.666 91.492 48.666C93.333 48.666 94.899 49.3134 96.19 50.6081C97.481 51.9029 98.1265 53.4735 98.1265 55.3199C98.1265 57.1664 97.481 58.737 96.19 60.0317C94.899 61.3265 93.333 61.9739 91.492 61.9739C89.6509 61.9739 88.0849 61.3265 86.7939 60.0317C85.5029 58.737 84.8574 57.1664 84.8574 55.3199C84.8574 53.4735 85.5029 51.9029 86.7939 50.6081Z" fill="#050A50"/>
<path d="M129.86 52.637C130.283 53.1942 130.49 53.9781 130.49 54.9886V61.3542C130.49 61.477 130.425 61.5431 130.302 61.5431H128.89C128.767 61.5431 128.701 61.477 128.701 61.3542V55.1208C128.701 54.5636 128.588 54.1386 128.362 53.827C128.136 53.5153 127.835 53.3642 127.458 53.3642C127.053 53.3642 126.733 53.5153 126.498 53.827C126.262 54.1386 126.14 54.5636 126.14 55.1019V61.3542C126.14 61.477 126.074 61.5431 125.952 61.5431H124.539C124.417 61.5431 124.351 61.477 124.351 61.3542V55.1208C124.351 54.5636 124.238 54.1386 124.012 53.827C123.786 53.5153 123.484 53.3642 123.108 53.3642C122.703 53.3642 122.382 53.5153 122.147 53.827C121.912 54.1386 121.789 54.5636 121.789 55.1019V61.3542C121.789 61.477 121.723 61.5431 121.601 61.5431H120.188C120.066 61.5431 120 61.477 120 61.3542V52.1175C120 51.9947 120.066 51.9286 120.188 51.9286H121.601C121.723 51.9286 121.789 51.9947 121.789 52.1175V52.5897C121.789 52.5897 121.799 52.637 121.817 52.6464C121.836 52.6558 121.855 52.6464 121.883 52.6275C122.138 52.3536 122.42 52.1458 122.75 52.0042C123.079 51.8625 123.4 51.7964 123.729 51.7964C124.68 51.7964 125.368 52.2214 125.782 53.062C125.791 53.0903 125.81 53.0997 125.838 53.0903C125.867 53.0903 125.886 53.0525 125.895 53.0053C126.149 52.5803 126.469 52.2686 126.856 52.0797C127.242 51.8908 127.647 51.7964 128.061 51.7964C128.842 51.7964 129.436 52.0797 129.86 52.637Z" fill="#050A50"/>
<path d="M138.749 52.6467C139.333 53.2228 139.624 53.9878 139.624 54.9323V61.3545C139.624 61.4773 139.559 61.5434 139.436 61.5434H138.005C137.882 61.5434 137.816 61.4773 137.816 61.3545V60.9389C137.816 60.9389 137.807 60.8917 137.788 60.8823C137.769 60.8728 137.751 60.8823 137.722 60.9012C137.28 61.4301 136.639 61.6945 135.782 61.6945C135.067 61.6945 134.436 61.4867 133.89 61.0806C133.343 60.6745 133.07 59.9473 133.07 58.8989C133.07 57.8506 133.4 57.0006 134.059 56.4906C134.718 55.9806 135.585 55.7256 136.649 55.7256H137.741C137.788 55.7256 137.816 55.6973 137.816 55.65V55.1023C137.816 54.5734 137.694 54.1484 137.44 53.8273C137.186 53.5062 136.865 53.3456 136.46 53.3456C136.15 53.3456 135.886 53.4495 135.669 53.6667C135.453 53.8839 135.33 54.1578 135.293 54.4978C135.293 54.6206 135.227 54.6867 135.104 54.6867H133.579C133.456 54.6867 133.39 54.6206 133.39 54.4978C133.456 53.695 133.777 53.0339 134.351 52.5334C134.925 52.0328 135.641 51.7778 136.498 51.7778C137.412 51.7778 138.165 52.0706 138.749 52.6467ZM137.327 59.6923C137.656 59.4184 137.816 59.0217 137.816 58.5212V57.2367C137.816 57.1895 137.788 57.1612 137.741 57.1612H136.592C136.093 57.1612 135.688 57.2934 135.387 57.5673C135.086 57.8412 134.935 58.2284 134.935 58.7478C134.935 59.2012 135.048 59.5412 135.274 59.7678C135.5 59.9945 135.801 60.1078 136.178 60.1078C136.62 60.1078 136.997 59.9662 137.327 59.6923Z" fill="#050A50"/>
<path d="M146.969 51.9289H148.4C148.523 51.9289 148.589 51.9951 148.589 52.1178V61.26C148.589 62.5823 148.287 63.6023 147.685 64.3295C147.082 65.0567 146.046 65.4156 144.577 65.4156L144.069 65.3967C143.946 65.3873 143.88 65.3117 143.88 65.1889V63.9801C143.88 63.8573 143.946 63.7912 144.087 63.7912C145.114 63.8289 145.82 63.6212 146.206 63.1773C146.592 62.7334 146.781 62.0345 146.781 61.0901V60.6934C146.781 60.6934 146.771 60.6556 146.752 60.6462C146.734 60.6462 146.715 60.6462 146.686 60.6745C146.263 61.2506 145.651 61.5434 144.86 61.5434C144.069 61.5434 143.39 61.2789 142.948 60.7406C142.505 60.2023 142.279 59.475 142.279 58.5589V54.7812C142.279 53.8462 142.505 53.1189 142.957 52.5806C143.409 52.0423 144.04 51.7778 144.86 51.7778C145.679 51.7778 146.281 52.0706 146.686 52.6467C146.715 52.6751 146.734 52.6751 146.752 52.6656C146.771 52.6562 146.781 52.6373 146.781 52.6089V52.1178C146.781 51.9951 146.847 51.9289 146.969 51.9289ZM146.413 59.5506C146.658 59.2673 146.781 58.8989 146.781 58.4456V54.8945C146.781 54.4412 146.658 54.0728 146.413 53.78C146.168 53.4873 145.848 53.3456 145.443 53.3456C145.038 53.3456 144.718 53.4873 144.464 53.78C144.21 54.0728 144.087 54.4412 144.087 54.8945V58.4456C144.087 58.8989 144.21 59.2673 144.464 59.5506C144.718 59.8339 145.038 59.9756 145.443 59.9756C145.848 59.9756 146.168 59.8339 146.413 59.5506Z" fill="#050A50"/>
<path d="M156.792 52.6467C157.376 53.2228 157.667 53.9878 157.667 54.9323V61.3545C157.667 61.4773 157.602 61.5434 157.479 61.5434H156.048C155.925 61.5434 155.859 61.4773 155.859 61.3545V60.9389C155.859 60.9389 155.85 60.8917 155.831 60.8823C155.812 60.8728 155.793 60.8823 155.765 60.9012C155.323 61.4301 154.682 61.6945 153.825 61.6945C153.11 61.6945 152.479 61.4867 151.933 61.0806C151.386 60.6745 151.113 59.9473 151.113 58.8989C151.113 57.8506 151.443 57.0006 152.102 56.4906C152.761 55.9806 153.628 55.7256 154.692 55.7256H155.784C155.831 55.7256 155.859 55.6973 155.859 55.65V55.1023C155.859 54.5734 155.737 54.1484 155.483 53.8273C155.228 53.5062 154.908 53.3456 154.503 53.3456C154.193 53.3456 153.929 53.4495 153.712 53.6667C153.496 53.8839 153.373 54.1578 153.336 54.4978C153.336 54.6206 153.27 54.6867 153.147 54.6867H151.622C151.499 54.6867 151.433 54.6206 151.433 54.4978C151.499 53.695 151.82 53.0339 152.394 52.5334C152.968 52.0328 153.684 51.7778 154.541 51.7778C155.454 51.7778 156.208 52.0706 156.792 52.6467ZM155.37 59.6923C155.699 59.4184 155.859 59.0217 155.859 58.5212V57.2367C155.859 57.1895 155.831 57.1612 155.784 57.1612H154.635C154.136 57.1612 153.731 57.2934 153.43 57.5673C153.129 57.8412 152.978 58.2284 152.978 58.7478C152.978 59.2012 153.091 59.5412 153.317 59.7678C153.543 59.9945 153.844 60.1078 154.221 60.1078C154.663 60.1078 155.04 59.9662 155.37 59.6923Z" fill="#050A50"/>
<path d="M160.041 61.3543V60.032C160.041 59.947 160.06 59.862 160.098 59.7865L163.619 53.6854C163.619 53.6854 163.629 53.6381 163.619 53.6193C163.61 53.6004 163.591 53.5909 163.563 53.5909H160.305C160.182 53.5909 160.116 53.5248 160.116 53.402V52.1176C160.116 51.9948 160.182 51.9287 160.305 51.9287H165.635C165.757 51.9287 165.823 51.9948 165.823 52.1176V53.4587C165.823 53.5437 165.804 53.6287 165.767 53.7043L162.15 59.8054C162.15 59.8054 162.141 59.8526 162.15 59.8715C162.16 59.8904 162.179 59.8998 162.207 59.8998H165.691C165.814 59.8998 165.88 59.9659 165.88 60.0887V61.3543C165.88 61.477 165.814 61.5431 165.691 61.5431H160.229C160.107 61.5431 160.041 61.477 160.041 61.3543Z" fill="#050A50"/>
<path d="M168.534 50.0778C168.308 49.8511 168.195 49.5583 168.195 49.2089C168.195 48.8594 168.308 48.5667 168.534 48.34C168.76 48.1133 169.052 48 169.401 48C169.749 48 170.06 48.1133 170.276 48.3305C170.493 48.5478 170.606 48.8406 170.606 49.2089C170.606 49.5772 170.493 49.8511 170.267 50.0778C170.041 50.3044 169.749 50.4178 169.401 50.4178C169.052 50.4178 168.76 50.3044 168.534 50.0778ZM168.515 61.3544V52.1178C168.515 51.995 168.581 51.9289 168.704 51.9289H170.135C170.258 51.9289 170.324 51.995 170.324 52.1178V61.3544C170.324 61.4772 170.258 61.5433 170.135 61.5433H168.704C168.581 61.5433 168.515 61.4772 168.515 61.3544Z" fill="#050A50"/>
<path d="M179.053 52.5992C179.477 53.1375 179.684 53.8931 179.684 54.8753V61.3542C179.684 61.477 179.618 61.5431 179.495 61.5431H178.064C177.942 61.5431 177.876 61.477 177.876 61.3542V55.0264C177.876 54.4975 177.763 54.0914 177.537 53.7986C177.311 53.5058 177 53.3642 176.595 53.3642C176.19 53.3642 175.861 53.5058 175.625 53.7892C175.39 54.0725 175.267 54.4692 175.239 54.9886C175.239 55.0642 175.239 55.1019 175.22 55.1019V61.3542C175.22 61.477 175.154 61.5431 175.032 61.5431H173.6C173.478 61.5431 173.412 61.477 173.412 61.3542V52.1175C173.412 51.9947 173.478 51.9286 173.6 51.9286H175.032C175.154 51.9286 175.22 51.9947 175.22 52.1175V52.6275C175.22 52.6275 175.23 52.6653 175.258 52.6747C175.286 52.6747 175.305 52.6747 175.333 52.6275C175.785 52.0703 176.416 51.7964 177.235 51.7964C178.055 51.7964 178.629 52.0608 179.053 52.5992Z" fill="#050A50"/>
<path d="M188.554 57.4823H184.297C184.25 57.4823 184.222 57.5106 184.222 57.5578V58.5778C184.222 59.0312 184.345 59.3995 184.599 59.6923C184.853 59.985 185.173 60.1267 185.578 60.1267C185.927 60.1267 186.228 60.0228 186.463 59.8056C186.699 59.5884 186.849 59.3145 186.915 58.9745C186.953 58.8706 187.019 58.8234 187.123 58.8234L188.516 58.8989C188.582 58.8989 188.629 58.9178 188.657 58.9556C188.686 58.9934 188.695 59.0406 188.686 59.0878C188.601 59.9095 188.29 60.5423 187.753 61.005C187.217 61.4678 186.492 61.6945 185.578 61.6945C184.608 61.6945 183.845 61.4206 183.271 60.8823C182.697 60.3439 182.414 59.6167 182.414 58.7101V54.7812C182.414 53.8839 182.697 53.1662 183.271 52.6089C183.845 52.0517 184.608 51.7778 185.578 51.7778C186.548 51.7778 187.33 52.0517 187.895 52.6089C188.46 53.1662 188.742 53.8839 188.742 54.7812V57.2934C188.742 57.4162 188.676 57.4823 188.554 57.4823ZM184.599 53.78C184.345 54.0728 184.222 54.4412 184.222 54.8945V55.8956C184.222 55.9428 184.25 55.9712 184.297 55.9712H186.878C186.925 55.9712 186.953 55.9428 186.953 55.8956V54.8945C186.953 54.4412 186.831 54.0728 186.576 53.78C186.322 53.4873 185.992 53.3456 185.578 53.3456C185.164 53.3456 184.853 53.4873 184.599 53.78Z" fill="#050A50"/>
<path d="M198.029 61.3732L195.712 52.1365L195.693 52.0609C195.693 51.9759 195.75 51.9287 195.863 51.9287H197.464C197.586 51.9287 197.661 51.9854 197.671 52.0987L199.027 58.5776C199.027 58.5776 199.055 58.6343 199.065 58.6343C199.074 58.6343 199.093 58.6154 199.102 58.5776L200.439 52.0987C200.468 51.9854 200.534 51.9287 200.647 51.9287L202.248 51.9476C202.313 51.9476 202.361 51.9665 202.389 52.0043C202.417 52.042 202.426 52.0893 202.398 52.1554L200.1 61.3732C200.091 61.4865 200.016 61.5431 199.893 61.5431H198.236C198.123 61.5431 198.057 61.4865 198.029 61.3732Z" fill="#050A50"/>
<path d="M205.326 60.8728C204.751 60.325 204.469 59.5978 204.469 58.6912V54.7812C204.469 53.8839 204.761 53.1662 205.335 52.6089C205.91 52.0517 206.682 51.7778 207.652 51.7778C208.622 51.7778 209.413 52.0517 209.987 52.6089C210.562 53.1662 210.853 53.8839 210.853 54.7812V58.6912C210.853 59.5978 210.562 60.325 209.987 60.8728C209.413 61.4206 208.631 61.6945 207.652 61.6945C206.672 61.6945 205.9 61.4206 205.326 60.8728ZM208.65 59.6828C208.914 59.3995 209.045 59.0217 209.045 58.5589V54.8945C209.045 54.4412 208.914 54.0728 208.65 53.78C208.386 53.4873 208.057 53.3456 207.652 53.3456C207.247 53.3456 206.917 53.4873 206.663 53.78C206.409 54.0728 206.277 54.4412 206.277 54.8945V58.5589C206.277 59.0217 206.409 59.3995 206.663 59.6828C206.917 59.9662 207.247 60.1078 207.652 60.1078C208.057 60.1078 208.386 59.9662 208.65 59.6828Z" fill="#050A50"/>
<path d="M214.347 60.8728C213.773 60.325 213.49 59.5978 213.49 58.6912V54.7812C213.49 53.8839 213.782 53.1662 214.357 52.6089C214.931 52.0517 215.703 51.7778 216.673 51.7778C217.643 51.7778 218.434 52.0517 219.009 52.6089C219.583 53.1662 219.875 53.8839 219.875 54.7812V58.6912C219.875 59.5978 219.583 60.325 219.009 60.8728C218.434 61.4206 217.653 61.6945 216.673 61.6945C215.694 61.6945 214.922 61.4206 214.347 60.8728ZM217.671 59.6828C217.935 59.3995 218.067 59.0217 218.067 58.5589V54.8945C218.067 54.4412 217.935 54.0728 217.671 53.78C217.408 53.4873 217.078 53.3456 216.673 53.3456C216.268 53.3456 215.939 53.4873 215.684 53.78C215.43 54.0728 215.298 54.4412 215.298 54.8945V58.5589C215.298 59.0217 215.43 59.3995 215.684 59.6828C215.939 59.9662 216.268 60.1078 216.673 60.1078C217.078 60.1078 217.408 59.9662 217.671 59.6828Z" fill="#050A50"/>
<path d="M227.107 52.0423C227.192 52.0895 227.229 52.1745 227.201 52.2878L226.919 53.7234C226.909 53.8367 226.834 53.8745 226.693 53.8367C226.532 53.7706 226.354 53.7423 226.165 53.7423C226.09 53.7423 225.977 53.7517 225.826 53.78C225.44 53.8178 225.111 54.035 224.856 54.4223C224.602 54.8095 224.47 55.2817 224.47 55.8389V61.3545C224.47 61.4773 224.404 61.5434 224.282 61.5434H222.85C222.728 61.5434 222.662 61.4773 222.662 61.3545V52.1178C222.662 51.995 222.728 51.9289 222.85 51.9289H224.282C224.404 51.9289 224.47 51.995 224.47 52.1178V53.2134C224.47 53.2134 224.48 53.27 224.498 53.2795C224.517 53.2795 224.536 53.2795 224.545 53.2322C224.913 52.2972 225.497 51.8345 226.297 51.8345C226.608 51.8345 226.881 51.9006 227.107 52.0423Z" fill="#050A50"/>
<path d="M232.514 65.2644V64.0744C232.514 63.9517 232.58 63.8855 232.702 63.8855C233.719 63.8761 234.228 63.2717 234.228 62.0722V52.1178C234.228 51.995 234.293 51.9289 234.416 51.9289H235.847C235.97 51.9289 236.036 51.995 236.036 52.1178V62.0722C236.036 62.8561 235.96 63.4794 235.8 63.9517C235.64 64.4239 235.329 64.7922 234.849 65.0567C234.369 65.3211 233.672 65.4533 232.759 65.4533C232.598 65.4533 232.514 65.3872 232.514 65.2644ZM234.265 50.0778C234.039 49.8511 233.926 49.5583 233.926 49.2089C233.926 48.8594 234.039 48.5667 234.265 48.34C234.491 48.1133 234.783 48 235.132 48C235.48 48 235.791 48.1133 236.017 48.34C236.243 48.5667 236.356 48.8594 236.356 49.2089C236.356 49.5583 236.243 49.8511 236.007 50.0778C235.772 50.3044 235.48 50.4178 235.132 50.4178C234.783 50.4178 234.491 50.3044 234.265 50.0778Z" fill="#050A50"/>
<path d="M243.681 51.9287H245.112C245.234 51.9287 245.3 51.9948 245.3 52.1176V61.3543C245.3 61.477 245.234 61.5431 245.112 61.5431H243.681C243.558 61.5431 243.492 61.477 243.492 61.3543V60.8065C243.492 60.8065 243.483 60.7498 243.464 60.7498C243.445 60.7498 243.426 60.7593 243.398 60.7876C243.022 61.3826 242.419 61.6754 241.59 61.6754C240.837 61.6754 240.225 61.4487 239.763 60.9859C239.302 60.5232 239.066 59.8243 239.066 58.8798V52.1176C239.066 51.9948 239.132 51.9287 239.255 51.9287H240.686C240.809 51.9287 240.874 51.9948 240.874 52.1176V58.4831C240.874 59.5693 241.298 60.1076 242.155 60.1076C242.579 60.1076 242.909 59.9565 243.144 59.6448C243.379 59.3332 243.492 58.9081 243.492 58.3698V52.1176C243.492 51.9948 243.558 51.9287 243.681 51.9287Z" fill="#050A50"/>
<path d="M252.759 52.0423C252.844 52.0895 252.882 52.1745 252.853 52.2878L252.571 53.7234C252.561 53.8367 252.486 53.8745 252.345 53.8367C252.185 53.7706 252.006 53.7423 251.818 53.7423C251.742 53.7423 251.629 53.7517 251.479 53.78C251.092 53.8178 250.763 54.035 250.509 54.4223C250.254 54.8095 250.123 55.2817 250.123 55.8389V61.3545C250.123 61.4773 250.057 61.5434 249.934 61.5434H248.503C248.38 61.5434 248.314 61.4773 248.314 61.3545V52.1178C248.314 51.995 248.38 51.9289 248.503 51.9289H249.934C250.057 51.9289 250.123 51.995 250.123 52.1178V53.2134C250.123 53.2134 250.132 53.27 250.151 53.2795C250.17 53.2795 250.188 53.2795 250.198 53.2322C250.565 52.2972 251.149 51.8345 251.949 51.8345C252.26 51.8345 252.533 51.9006 252.759 52.0423Z" fill="#050A50"/>
<path d="M255.208 50.0778C254.982 49.8511 254.869 49.5583 254.869 49.2089C254.869 48.8594 254.982 48.5667 255.208 48.34C255.434 48.1133 255.726 48 256.075 48C256.423 48 256.734 48.1133 256.95 48.3305C257.167 48.5478 257.28 48.8406 257.28 49.2089C257.28 49.5772 257.167 49.8511 256.941 50.0778C256.715 50.3044 256.423 50.4178 256.075 50.4178C255.726 50.4178 255.434 50.3044 255.208 50.0778ZM255.189 61.3544V52.1178C255.189 51.995 255.255 51.9289 255.378 51.9289H256.809C256.931 51.9289 256.997 51.995 256.997 52.1178V61.3544C256.997 61.4772 256.931 61.5433 256.809 61.5433H255.378C255.255 61.5433 255.189 61.4772 255.189 61.3544Z" fill="#050A50"/>
<path d="M260.585 60.9672C260.039 60.5045 259.766 59.8906 259.766 59.1067V58.9367C259.766 58.8139 259.832 58.7478 259.954 58.7478H261.291C261.414 58.7478 261.48 58.8139 261.48 58.9367V59.0689C261.48 59.4089 261.611 59.6922 261.875 59.9284C262.139 60.1645 262.468 60.2778 262.854 60.2778C263.24 60.2778 263.532 60.1645 263.768 59.9378C264.003 59.7111 264.116 59.4184 264.116 59.0689C264.116 58.795 264.031 58.5589 263.871 58.37C263.711 58.1811 263.514 58.03 263.297 57.9261C263.08 57.8222 262.741 57.6711 262.289 57.4822C261.8 57.265 261.395 57.0572 261.075 56.8589C260.754 56.6606 260.472 56.3678 260.218 55.99C259.963 55.6122 259.841 55.1306 259.841 54.5545C259.841 53.695 260.105 53.0339 260.641 52.5522C261.178 52.0706 261.894 51.8345 262.798 51.8345C263.702 51.8345 264.455 52.08 264.992 52.5711C265.529 53.0622 265.792 53.7328 265.792 54.5734V54.63C265.792 54.7528 265.727 54.8189 265.604 54.8189H264.305C264.182 54.8189 264.116 54.7528 264.116 54.63V54.4978C264.116 54.1578 263.994 53.865 263.758 53.6289C263.523 53.3928 263.212 53.27 262.836 53.27C262.459 53.27 262.139 53.3928 261.913 53.6289C261.687 53.865 261.574 54.1578 261.574 54.4978C261.574 54.7622 261.649 54.9795 261.8 55.1589C261.95 55.3384 262.129 55.48 262.346 55.5839C262.562 55.6878 262.901 55.8484 263.363 56.0467C263.881 56.2734 264.305 56.4906 264.644 56.6984C264.983 56.9061 265.284 57.1989 265.538 57.5767C265.792 57.9545 265.924 58.4267 265.924 58.9934C265.924 59.815 265.642 60.4572 265.086 60.9389C264.531 61.4206 263.768 61.6567 262.817 61.6567C261.866 61.6567 261.131 61.43 260.585 60.9672Z" fill="#050A50"/>
<path d="M271.97 53.2509H270.651C270.604 53.2509 270.576 53.2792 270.576 53.3265V58.6342C270.576 59.1348 270.661 59.4842 270.84 59.6826C271.019 59.8809 271.292 59.9659 271.668 59.9565H271.838C271.96 59.9565 272.026 60.0226 272.026 60.1453V61.3542C272.026 61.477 271.96 61.5431 271.838 61.5431H271.254C270.454 61.5431 269.841 61.3826 269.436 61.0709C269.032 60.7592 268.824 60.1548 268.824 59.2765V53.3265C268.824 53.2792 268.796 53.2509 268.749 53.2509H268.015C267.892 53.2509 267.826 53.1848 267.826 53.062V52.1176C267.826 51.9948 267.892 51.9287 268.015 51.9287H268.749C268.796 51.9287 268.824 51.9003 268.824 51.8531V49.7187C268.824 49.5959 268.89 49.5298 269.013 49.5298H270.388C270.51 49.5298 270.576 49.5959 270.576 49.7187V51.8531C270.576 51.9003 270.604 51.9287 270.651 51.9287H271.97C272.092 51.9287 272.158 51.9948 272.158 52.1176V53.062C272.158 53.1848 272.092 53.2509 271.97 53.2509Z" fill="#050A50"/>
<path d="M280.595 57.4823H276.338C276.291 57.4823 276.263 57.5106 276.263 57.5578V58.5778C276.263 59.0312 276.386 59.3995 276.64 59.6923C276.894 59.985 277.214 60.1267 277.619 60.1267C277.968 60.1267 278.269 60.0228 278.504 59.8056C278.74 59.5884 278.89 59.3145 278.956 58.9745C278.994 58.8706 279.06 58.8234 279.164 58.8234L280.557 58.8989C280.623 58.8989 280.67 58.9178 280.699 58.9556C280.727 58.9934 280.736 59.0406 280.727 59.0878C280.642 59.9095 280.331 60.5423 279.794 61.005C279.258 61.4678 278.533 61.6945 277.619 61.6945C276.649 61.6945 275.886 61.4206 275.312 60.8823C274.738 60.3439 274.455 59.6167 274.455 58.7101V54.7812C274.455 53.8839 274.738 53.1662 275.312 52.6089C275.886 52.0517 276.649 51.7778 277.619 51.7778C278.589 51.7778 279.371 52.0517 279.936 52.6089C280.501 53.1662 280.783 53.8839 280.783 54.7812V57.2934C280.783 57.4162 280.717 57.4823 280.595 57.4823ZM276.64 53.78C276.386 54.0728 276.263 54.4412 276.263 54.8945V55.8956C276.263 55.9428 276.291 55.9712 276.338 55.9712H278.919C278.966 55.9712 278.994 55.9428 278.994 55.8956V54.8945C278.994 54.4412 278.872 54.0728 278.617 53.78C278.363 53.4873 278.034 53.3456 277.619 53.3456C277.205 53.3456 276.894 53.4873 276.64 53.78Z" fill="#050A50"/>
<path d="M289.156 52.5992C289.58 53.1375 289.787 53.8931 289.787 54.8753V61.3542C289.787 61.477 289.721 61.5431 289.599 61.5431H288.168C288.045 61.5431 287.979 61.477 287.979 61.3542V55.0264C287.979 54.4975 287.866 54.0914 287.64 53.7986C287.414 53.5058 287.103 53.3642 286.699 53.3642C286.294 53.3642 285.964 53.5058 285.729 53.7892C285.493 54.0725 285.371 54.4692 285.343 54.9886C285.343 55.0642 285.343 55.1019 285.324 55.1019V61.3542C285.324 61.477 285.258 61.5431 285.135 61.5431H283.704C283.582 61.5431 283.516 61.477 283.516 61.3542V52.1175C283.516 51.9947 283.582 51.9286 283.704 51.9286H285.135C285.258 51.9286 285.324 51.9947 285.324 52.1175V52.6275C285.324 52.6275 285.333 52.6653 285.361 52.6747C285.39 52.6747 285.408 52.6747 285.437 52.6275C285.889 52.0703 286.52 51.7964 287.339 51.7964C288.158 51.7964 288.733 52.0608 289.156 52.5992Z" fill="#050A50"/>
</svg>
